<svg width="207" height="195" viewBox="0 0 207 195" fill="none" xmlns="http://www.w3.org/2000/svg">
<path d="M206.625 99.2187C206.625 85.4687 195.883 78.1641 180.844 78.1641H137.445C140.453 66.5625 142.172 55.3906 142.172 45.9375C142.172 8.55469 131.859 0.820312 122.836 0.820312C116.82 0.820312 112.523 1.25 106.508 5.11719C104.789 5.97656 103.93 7.69531 103.5 9.41406L97.0547 44.2188C90.1797 62.6953 72.5625 78.5938 58.3828 89.336V181.289C63.1094 181.289 69.125 183.867 74.7109 186.875C81.5859 190.312 88.8906 193.75 97.0547 193.75H158.5C171.391 193.75 180.844 183.437 180.844 174.414C180.844 172.695 180.844 170.977 180.414 169.687C188.578 166.68 193.734 159.805 193.734 152.07C193.734 148.203 192.875 144.766 191.586 142.187C196.313 138.75 201.469 133.164 201.469 126.289C201.469 122.852 199.75 118.555 197.172 115.547C202.758 111.25 206.625 105.234 206.625 99.2187ZM193.305 99.2187C193.305 107.383 184.711 108.242 183.422 112.109C182.133 116.406 188.578 118.125 188.578 125.859C188.578 134.023 178.695 134.023 177.406 137.891C175.688 142.617 180.414 144.336 180.414 152.07C180.414 152.5 180.414 152.93 180.414 153.359C179.125 159.805 169.242 160.234 167.523 162.813C165.805 165.82 167.953 167.539 167.953 174.414C167.953 178.281 163.656 180.859 158.5 180.859H97.0547C92.3281 180.859 86.3125 178.281 80.7266 175.273C75.5703 172.695 70.4141 170.117 64.8281 168.828V100.508C80.7266 88.4766 101.352 70 109.516 47.6562C109.516 47.2265 109.516 46.7969 109.945 46.7969L115.961 14.5704C118.109 13.711 119.828 13.7109 123.266 13.7109C124.555 13.7109 129.711 21.4453 129.711 45.9375C129.711 55.3906 127.992 66.1328 124.555 78.1641H122.836C119.398 78.1641 116.391 81.1719 116.391 84.6094C116.391 88.0469 119.398 91.0547 122.836 91.0547H180.844C187.289 91.0547 193.305 94.0625 193.305 99.2187Z" fill="#134563"/>
<path d="M51.9375 194.18H13.2656C5.96094 194.18 0.375 188.594 0.375 181.289V91.0547C0.375 83.75 5.96094 78.1641 13.2656 78.1641H51.9375C59.2422 78.1641 64.8281 83.75 64.8281 91.0547V181.289C64.8281 188.594 59.2422 194.18 51.9375 194.18ZM13.2656 91.0547V181.289H51.9375V91.0547H13.2656Z" fill="#134563"/>
</svg>
