<svg width="216" height="260" viewBox="0 0 216 260" fill="none" xmlns="http://www.w3.org/2000/svg">
<path d="M208.085 50.91C204.244 37.4821 199.45 27.8954 193.705 22.15C187.959 16.4045 178.373 11.6112 164.945 7.76998M8.0362 50.91C11.0298 37.4821 15.3993 27.8954 21.1448 22.15C26.8903 16.4045 36.9007 11.6112 51.1762 7.76998M143.375 230.66C133.788 245.04 121.805 252.23 107.425 252.23C93.0448 252.23 81.0615 245.04 71.4748 230.66M180.54 209.09H34.3093C21.1996 209.09 10.5721 198.462 10.5721 185.353C10.5721 181.05 11.7413 176.829 13.9548 173.14C28.0691 149.616 35.5248 122.699 35.5248 95.2654V79.67C35.5248 47.9026 61.2774 22.15 93.0448 22.15H121.805C153.572 22.15 179.325 47.9026 179.325 79.67V95.2654C179.325 122.699 186.781 149.616 200.895 173.14C207.64 184.381 203.994 198.962 192.753 205.707C189.064 207.921 184.843 209.09 180.54 209.09Z" stroke="black" stroke-width="14.38" stroke-linecap="round" stroke-linejoin="round"/>
</svg>
