<svg width="512" height="512" viewBox="0 0 512 512" fill="none" xmlns="http://www.w3.org/2000/svg">
<path fill-rule="evenodd" clip-rule="evenodd" d="M256 0C326.7 0 390.7 28.7 437 75C483.3 121.3 512 185.3 512 256C512 326.7 483.3 390.7 437 437C390.7 483.3 326.7 512 256 512C185.3 512 121.3 483.3 75 437C28.7 390.7 0 326.7 0 256C0 185.3 28.7 121.3 75 75C121.3 28.7 185.3 0 256 0Z" fill="none"/>
<path fill-rule="evenodd" clip-rule="evenodd" d="M512 256C512 185.3 483.3 121.3 437 75C390.7 28.7 326.7 0 256 0C193 0 135.5 22.8 90.9 60.6L90.8 60.5C85.3 65.1 80 69.9 75 75C70 80.1 65.1 85.3 60.5 90.8L60.6 90.9C22.8 135.5 0 193 0 256C0 326.7 28.7 390.7 75 437C121.3 483.3 185.3 512 256 512C319 512 376.5 489.2 421.1 451.4L421.2 451.5C426.6 446.9 431.9 442 437 437C442 432 446.9 426.7 451.5 421.2L451.4 421.1C489.2 376.6 512 319 512 256ZM256 42.9C314.9 42.9 368.1 66.8 406.7 105.3C445.3 143.9 469.1 197.2 469.1 256C469.1 307.1 451 354 421 390.8L121.2 90.9C158 60.9 204.9 42.9 256 42.9ZM256 469.1C197.2 469.1 143.9 445.2 105.3 406.7C66.7 368.1 42.9 314.9 42.9 256C42.9 204.9 61 158 91 121.2L390.8 421C354 451.1 307.1 469.1 256 469.1Z" fill="#EC1C24"/>
</svg>
