<svg width="172" height="162" viewBox="0 0 172 162" fill="none" xmlns="http://www.w3.org/2000/svg">
<path d="M19.5323 155.198H152.468C154.627 155.197 156.749 154.637 158.627 153.571C160.504 152.505 162.073 150.97 163.18 149.116C164.287 147.263 164.894 145.153 164.942 142.995C164.99 140.836 164.478 138.702 163.454 136.801L96.9902 13.3662C92.2751 4.6146 79.7249 4.6146 75.0098 13.3662L8.546 136.801C7.52245 138.702 7.00962 140.836 7.05761 142.995C7.1056 145.153 7.71278 147.263 8.81981 149.116C9.92684 150.97 11.4958 152.505 13.3735 153.571C15.2511 154.637 17.3732 155.197 19.5323 155.198Z" stroke="black" stroke-width="12.48" stroke-linecap="round" stroke-linejoin="round"/>
<path d="M83.7614 57.3622L86 104.942L88.2347 57.3817C88.2485 57.0777 88.2002 56.774 88.0926 56.4893C87.9851 56.2045 87.8206 55.9447 87.6093 55.7257C87.3979 55.5067 87.1441 55.3331 86.8634 55.2155C86.5827 55.0979 86.281 55.0387 85.9766 55.0417C85.6776 55.0446 85.3822 55.1074 85.1078 55.2264C84.8335 55.3454 84.5857 55.5181 84.3793 55.7344C84.1728 55.9507 84.0117 56.2062 83.9056 56.4858C83.7995 56.7654 83.7505 57.0634 83.7614 57.3622Z" stroke="black" stroke-width="12.48" stroke-linecap="round" stroke-linejoin="round"/>
<path d="M86 136.16C84.4573 136.16 82.9493 135.703 81.6666 134.845C80.3838 133.988 79.3841 132.77 78.7937 131.345C78.2034 129.92 78.0489 128.351 78.3499 126.838C78.6508 125.325 79.3937 123.935 80.4846 122.845C81.5754 121.754 82.9652 121.011 84.4783 120.71C85.9913 120.409 87.5597 120.563 88.9849 121.154C90.4102 121.744 91.6284 122.744 92.4855 124.027C93.3425 125.309 93.8 126.817 93.8 128.36C93.8 130.429 92.9782 132.413 91.5154 133.875C90.0527 135.338 88.0687 136.16 86 136.16Z" fill="black"/>
</svg>
